<?xml version="1.0" encoding="UTF-8"?>
<svg id="Capa_2" data-name="Capa 2" xmlns="http://www.w3.org/2000/svg" viewBox="0 0 344.4 125.2">
  <g id="Capa_1-2" data-name="Capa 1">
    <g>
      <path d="M0,0h75.11l-37.59,76.2h37.59l-9.01,49.01H0V0Z"/>
      <path d="M84.16.13h76.48v32.16h-41.81v17.12h36.45v26.79h-36.45v16.85h41.81v32.16h-85.53l33.01-75.79h-27.58L84.16.13Z"/>
      <path d="M173.86.13h45.56c36.27,0,61.46,25.55,61.46,62.18s-25.37,62.89-61.46,62.89h-45.56V.13ZM216.56,93.04c18.76,0,28.05-10.18,28.05-30.2s-9.83-30.55-28.05-30.55h-6.97v60.75h6.97Z"/>
      <path d="M308.84,41.58h-15.01v-24.66h5.54c9.65,0,14.29-5.54,14.29-16.8h30.73v125.07h-35.56V41.58Z"/>
    </g>
  </g>
</svg>